<svg xmlns="http://www.w3.org/2000/svg" width="520" height="130" viewBox="0 0 520 130">
  <rect width="520" height="130" rx="8" fill="#050505"/>
  <g transform="translate(22 22)" fill="none" stroke="#E8C76A" stroke-linecap="round">
    <path stroke-width="2.1" d="M6 48C3 36 11 22 23 16c12-6 25-3 33 7 11 3 17 13 14 23-3 9-14 14-24 12-9 9-24 10-33 2-4-3-6-8-7-12Z"/>
    <path stroke-width="1.6" d="M14 45c5-10 13-17 23-20M19 52c8-7 17-12 27-14M28 57c8-3 16-4 24-2M28 28c3 2 5 4 7 7m9-17c0 5 1 9 3 13m11-7c-2 3-4 7-4 11"/>
    <path stroke-width="1.8" d="M32 44c4-5 12-5 17-2 4 3 5 9 2 12-4 4-12 4-17 1-4-3-5-8-2-11Z"/>
  </g>
  <text x="112" y="68" fill="#F5F5F5" font-family="Georgia, serif" font-size="42" letter-spacing="1">QUERO <tspan fill="#E8C76A">OSTRA</tspan></text>
  <text x="114" y="91" fill="#D4AF37" font-family="Arial, sans-serif" font-size="10" font-weight="700" letter-spacing="4">FRESCOR DO MAR NA SUA MESA</text>
</svg>
